Coordinates
version=1
nRows=14
nColumns=63
inDegrees=yes

Units are S.I. units (second, meters, Newtons, ...)
If the header above contains a line with 'inDegrees', this indicates whether rotational values are in degrees (yes) or radians (no).

endheader
time	pelvis_tilt	pelvis_list	pelvis_rotation	pelvis_tx	pelvis_ty	pelvis_tz	hip_flexion_r	hip_adduction_r	hip_rotation_r	knee_angle_r	knee_angle_r_beta	ankle_angle_r	subtalar_angle_r	mtp_angle_r	hip_flexion_l	hip_adduction_l	hip_rotation_l	knee_angle_l	knee_angle_l_beta	ankle_angle_l	subtalar_angle_l	mtp_angle_l	L5_S1_Flex_Ext	L5_S1_Lat_Bending	L5_S1_axial_rotation	L4_L5_Flex_Ext	L4_L5_Lat_Bending	L4_L5_axial_rotation	L3_L4_Flex_Ext	L3_L4_Lat_Bending	L3_L4_axial_rotation	L2_L3_Flex_Ext	L2_L3_Lat_Bending	L2_L3_axial_rotation	L1_L2_Flex_Ext	L1_L2_Lat_Bending	L1_L2_axial_rotation	L1_T12_Flex_Ext	L1_T12_Lat_Bending	L1_T12_axial_rotation	Abs_r3	Abs_r2	Abs_r1	Abs_t1	Abs_t2	neck_flexion	neck_bending	neck_rotation	arm_flex_r	arm_add_r	arm_rot_r	elbow_flex_r	pro_sup_r	wrist_flex_r	wrist_dev_r	arm_flex_l	arm_add_l	arm_rot_l	elbow_flex_l	pro_sup_l	wrist_flex_l	wrist_dev_l
4.615385	4.538713	-12.358473	85.503126	0.211771	1.013543	0.537081	5.316642	0.181003	1.963846	5.706322	0.099594	24.631984	12.394256	0.000000	5.047282	-0.990512	-0.315122	5.391682	0.094103	23.066643	-6.889250	0.000000	-0.183456	0.166366	-0.632701	-0.340697	0.221267	-0.672245	-0.301400	0.404503	-0.672245	-0.209672	0.404503	-0.553613	-0.170358	0.339254	-0.514069	-0.104827	0.257701	-0.474526	-1.310410	1.881968	-3.518892	0.000000	0.000000	2.458208	0.040788	11.207860	211.263821	-179.896774	331.575466	0.127633	2.750057	0.035261	-22.504879	376.284747	-4.979621	485.535248	6.233512	6.163764	3.826984	-20.218165
4.634615	4.471190	-11.754973	85.011509	0.213853	1.013245	0.532208	4.051449	0.208887	3.519521	5.032783	0.087839	24.588116	11.075294	0.000000	3.575361	-0.920378	0.294156	4.474672	0.078098	22.976306	-8.037019	0.000000	-0.187863	0.153680	-0.539231	-0.348881	0.204395	-0.572933	-0.308641	0.373658	-0.572933	-0.214709	0.373658	-0.471827	-0.174450	0.313385	-0.438125	-0.107345	0.238051	-0.404423	-1.341889	1.738462	-2.999039	0.000000	0.000000	2.378204	0.122544	11.466982	209.654679	-181.094540	328.377538	2.706775	6.422992	0.552538	-21.539696	374.663218	-4.331181	475.465302	10.236232	11.031338	2.581885	-17.669978
4.653846	4.422854	-11.195565	84.596536	0.215894	1.012783	0.527261	2.834614	0.242640	5.030544	4.396258	0.076729	24.574062	9.757273	0.000000	2.184006	-0.860070	0.959618	3.632169	0.063393	22.918461	-9.195867	0.000000	-0.187948	0.142051	-0.440645	-0.349038	0.188928	-0.468185	-0.308780	0.345383	-0.468185	-0.214806	0.345383	-0.385564	-0.174529	0.289671	-0.358024	-0.107394	0.220037	-0.330483	-1.342494	1.606911	-2.450733	0.000000	0.000000	2.411367	0.210697	11.592511	207.794971	-181.893001	323.808935	5.943802	8.530571	0.449648	-19.663006	373.011119	-3.876453	465.259643	14.563638	17.150494	1.413661	-14.470912
4.673077	4.395797	-10.690879	84.275231	0.217833	1.012181	0.522363	1.695588	0.288013	6.421272	3.813420	0.066557	24.599134	8.534072	0.000000	0.902941	-0.820574	1.614276	2.883463	0.050326	22.900577	-10.256619	0.000000	-0.183820	0.131748	-0.341558	-0.341373	0.175225	-0.362906	-0.301999	0.320333	-0.362906	-0.210088	0.320333	-0.298864	-0.170696	0.268661	-0.277516	-0.105035	0.204078	-0.256169	-1.313011	1.490363	-1.899646	0.000000	0.000000	2.545204	0.301496	11.578200	205.691549	-182.313426	317.681798	9.651007	10.471579	0.211618	-16.816163	371.447956	-3.585586	455.247475	19.005804	24.277019	0.601712	-10.852850
4.692308	4.393057	-10.246698	84.055979	0.219623	1.011469	0.517636	0.657739	0.350985	7.673736	3.295347	0.057515	24.661691	7.421749	0.000000	-0.248410	-0.810600	2.243127	2.240342	0.039101	22.920868	-11.188545	0.000000	-0.175725	0.123392	-0.251145	-0.326339	0.164111	-0.266842	-0.288699	0.300015	-0.266842	-0.200836	0.300015	-0.219752	-0.163178	0.251621	-0.204055	-0.100409	0.191134	-0.188359	-1.255187	1.395834	-1.396793	0.000000	0.000000	2.764683	0.387604	11.451813	203.442984	-182.379412	310.050049	13.723261	13.909197	0.306968	-13.460893	370.020849	-3.440716	445.529161	23.425381	32.132796	0.363917	-6.950401
4.711538	4.423239	-9.859374	83.940530	0.221221	1.010697	0.513191	-0.264288	0.438729	8.765261	2.859025	0.049899	24.769246	6.439285	0.000000	-1.263528	-0.838233	2.828355	1.710942	0.029862	22.972763	-11.965982	0.000000	-0.165226	0.118118	-0.177665	-0.306842	0.157097	-0.188769	-0.271450	0.287192	-0.188769	-0.188837	0.287192	-0.155457	-0.153429	0.240866	-0.144353	-0.094410	0.182964	-0.133249	-1.180195	1.336172	-0.988118	0.000000	0.000000	3.061080	0.488719	11.245662	201.179844	-182.101295	301.307168	18.065049	18.679697	0.717502	-9.873730	368.757244	-3.442075	436.270115	27.715354	40.433198	0.725697	-2.923111
4.730769	4.485323	-9.541678	83.899961	0.222615	1.009903	0.509120	-1.050013	0.549287	9.708920	2.499013	0.043616	24.908594	5.586695	0.000000	-2.127739	-0.899804	3.327504	1.292785	0.022563	23.043619	-12.566689	0.000000	-0.151090	0.116884	-0.122195	-0.280589	0.155456	-0.129833	-0.248225	0.284193	-0.129833	-0.172680	0.284193	-0.106921	-0.140302	0.238351	-0.099284	-0.086333	0.181054	-0.091646	-1.079219	1.322220	-0.679614	0.000000	0.000000	3.422219	0.589714	11.001934	198.996303	-181.504634	291.875947	22.551529	24.527528	1.292651	-6.287496	367.624142	-3.591217	427.622683	31.810978	48.903268	1.509795	1.128174
4.750000	4.585386	-9.275463	83.918308	0.223746	1.009154	0.505489	-1.706785	0.687686	10.486714	2.229666	0.038915	25.074985	4.869687	0.000000	-2.856524	-0.997639	3.716526	0.986509	0.017218	23.128146	-12.982695	0.000000	-0.136886	0.120753	-0.079338	-0.254211	0.160601	-0.084297	-0.224890	0.293598	-0.084297	-0.156447	0.293598	-0.069421	-0.127112	0.246239	-0.064462	-0.078217	0.187046	-0.059504	-0.977762	1.365979	-0.441256	0.000000	0.000000	3.818216	0.726959	10.717344	196.961440	-180.585410	282.169323	27.099044	31.180472	1.952308	-2.841565	366.667401	-3.873498	420.036087	35.616247	57.256638	2.412692	5.065950
4.769231	4.715569	-9.078356	83.978901	0.224570	1.008491	0.502406	-2.203564	0.841768	10.921128	2.055514	0.035875	25.297399	4.547045	0.000000	-3.425922	-1.125431	3.982823	0.785341	0.013707	23.209520	-13.220877	0.000000	-0.120431	0.130488	-0.043898	-0.223652	0.173549	-0.046642	-0.197856	0.317268	-0.046642	-0.137640	0.317268	-0.038411	-0.111832	0.266091	-0.035667	-0.068814	0.202126	-0.032924	-0.860226	1.476104	-0.244148	0.000000	0.000000	4.219055	0.863332	10.419877	195.120916	-179.398596	272.566522	31.544947	38.349611	2.756388	0.445632	365.930512	-4.248792	414.003957	38.987905	65.214308	3.063304	8.669986
4.788462	4.874230	-8.928428	84.082205	0.225101	1.007952	0.499856	-2.577983	1.016981	11.260505	1.955096	0.034123	25.496541	4.246328	0.000000	-3.862083	-1.280136	4.143458	0.680584	0.011878	23.278805	-13.310173	0.000000	-0.104207	0.145212	-0.021307	-0.193523	0.193133	-0.022638	-0.171202	0.353070	-0.022638	-0.119099	0.353070	-0.018643	-0.096767	0.296117	-0.017312	-0.059544	0.224934	-0.015980	-0.744343	1.642672	-0.118501	0.000000	0.000000	4.588423	1.051783	10.152105	193.593661	-178.019811	263.753395	35.749282	45.761027	3.314645	3.395471	365.372895	-4.673006	409.749642	41.851458	72.496391	3.106221	12.019715
4.807692	5.053351	-8.812305	84.215590	0.225364	1.007542	0.497853	-2.845117	1.207087	11.538476	1.924383	0.033587	25.660057	3.924563	0.000000	-4.186185	-1.451370	4.251701	0.654036	0.011415	23.328142	-13.328254	0.000000	-0.089251	0.163652	-0.005860	-0.165749	0.217658	-0.006226	-0.146631	0.397904	-0.006226	-0.102005	0.397904	-0.005128	-0.082879	0.333720	-0.004761	-0.050998	0.253497	-0.004395	-0.637514	1.851267	-0.032592	0.000000	0.000000	4.905447	1.302622	9.898635	192.409437	-176.533150	256.122033	39.577338	53.138814	3.561295	5.997992	365.080030	-5.079811	407.575318	44.028642	78.815189	2.907818	14.987890
4.826923	5.248964	-8.701532	84.369034	0.225400	1.007279	0.496417	-3.029527	1.405496	11.619065	1.970912	0.034399	25.821233	3.781563	0.000000	-4.431548	-1.640544	4.166643	0.693151	0.012098	23.420186	-13.072471	0.000000	-0.079452	0.184798	0.001036	-0.147550	0.245781	0.001101	-0.130531	0.449318	0.001101	-0.090805	0.449318	0.000906	-0.073779	0.376840	0.000842	-0.045399	0.286252	0.000777	-0.567515	2.090472	0.005762	0.000000	0.000000	5.148812	1.628008	9.688714	191.625909	-175.047394	250.181624	42.870028	60.200398	3.424004	8.149957	365.117264	-5.403359	407.731830	45.372061	83.871379	2.844302	17.471503
4.846154	5.435568	-8.595300	84.498509	0.225311	1.007153	0.495524	-3.139201	1.588643	11.586779	2.077770	0.036264	25.971979	3.765567	0.000000	-4.611524	-1.816544	3.898237	0.776483	0.013552	23.541157	-12.612496	0.000000	-0.072709	0.204738	0.008835	-0.135028	0.272301	0.009387	-0.119454	0.497799	0.009387	-0.083099	0.497799	0.007730	-0.067518	0.417501	0.007178	-0.041546	0.317139	0.006626	-0.519353	2.316033	0.049136	0.000000	0.000000	5.285937	2.028879	9.467496	191.190137	-173.681817	246.196694	45.478597	66.661444	2.907034	9.748569	365.551700	-5.555567	410.335040	45.671283	87.377693	3.385052	19.219524
4.865385	5.604821	-8.476324	84.655299	0.225082	1.007156	0.495094	-3.226663	1.756212	11.573330	2.193650	0.038286	26.066058	3.636584	0.000000	-4.760758	-1.972360	3.737686	0.859938	0.015009	23.607702	-12.275300	0.000000	-0.069953	0.221921	0.004419	-0.129911	0.295155	0.004695	-0.114926	0.539580	0.004695	-0.079950	0.539580	0.003867	-0.064959	0.452542	0.003591	-0.039971	0.343756	0.003314	-0.499670	2.510418	0.024578	0.000000	0.000000	5.309802	2.489731	9.234903	191.077860	-172.559372	244.416612	47.259694	72.228101	2.121255	10.635335	366.372005	-5.470092	415.214970	44.849264	89.046567	4.688608	20.134374
